<svg xmlns="http://www.w3.org/2000/svg" viewBox="0 0 1000 520" width="100%" role="img"
     aria-label="Cumulative return of a one-name daily rotation against onshore A-share indices">
  <style>
    :root { --bg:#ffffff; --ink:#1f2328; --dim:#656d76; --grid:#e6e8eb; --muted:#8b949e;
             --accent:#7c3aed; --line-a:#0969da; --line-b:#bf8700; --excess:#57606a;
             --shade:rgba(101,109,118,0.07); }
    @media (prefers-color-scheme: dark) {
      :root { --bg:#0d1117; --ink:#e6edf3; --dim:#8b949e; --grid:#21262d; --muted:#6e7681;
               --accent:#a371f7; --line-a:#58a6ff; --line-b:#d29922; --excess:#8b949e;
               --shade:rgba(139,148,158,0.10); }
    }
    :root[data-theme="dark"] { --bg:#0d1117; --ink:#e6edf3; --dim:#8b949e; --grid:#21262d;
      --muted:#6e7681; --accent:#a371f7; --line-a:#58a6ff; --line-b:#d29922; --excess:#8b949e;
      --shade:rgba(139,148,158,0.10); }
    :root[data-theme="light"] { --bg:#ffffff; --ink:#1f2328; --dim:#656d76; --grid:#e6e8eb;
      --muted:#8b949e; --accent:#7c3aed; --line-a:#0969da; --line-b:#bf8700; --excess:#57606a;
      --shade:rgba(101,109,118,0.07); }
    text { font-family: -apple-system, BlinkMacSystemFont, "Segoe UI", Helvetica, Arial, sans-serif; }
    .title { font-size: 19px; font-weight: 600; fill: var(--ink); }
    .subtitle, .footer { font-size: 12.5px; fill: var(--dim); }
    .tick { font-size: 11px; fill: var(--dim); }
    .legend { font-size: 12px; fill: var(--ink); }
    .legend.value { font-size: 13px; font-weight: 600; fill: var(--dim); }
    .phase { font-size: 11px; fill: var(--dim); }
    .phase.live { fill: var(--accent); font-weight: 600; }
    .grid { stroke: var(--grid); stroke-width: 1; }
    .backtest { fill: var(--shade); }
    .divider { stroke: var(--accent); stroke-width: 1.5; stroke-dasharray: 3 3; }
    .pick-box { fill: none; stroke: var(--accent); stroke-width: 1.2; }
    .pick-label { font-size: 9.5px; letter-spacing: 0.09em; fill: var(--accent); font-weight: 700; }
    .pick-symbol { font-size: 19px; font-weight: 700; fill: var(--ink);
                    font-family: ui-monospace, SFMono-Regular, Menlo, monospace; }
    .pick-meta { font-size: 10px; fill: var(--dim); }
    .stale-box { fill: none; stroke: #d1242f; stroke-width: 1.2; }
    .stale { font-size: 11px; font-weight: 700; fill: #d1242f; }
  </style>
  <rect width="1000" height="520" fill="var(--bg, #ffffff)"/>
  <text class="title" x="62" y="30">Hold one name, rotate every session</text>
  <text class="subtitle" x="62" y="49">Cumulative return after 30 bps per rotation, against the indices it is competing with</text>
  
<line class="grid" x1="62" y1="428.2" x2="832" y2="428.2"/>  <text class="tick" x="52" y="432.2" text-anchor="end">+0%</text>  <line class="grid" x1="62" y1="350.7" x2="832" y2="350.7"/>  <text class="tick" x="52" y="354.7" text-anchor="end">+35%</text>  <line class="grid" x1="62" y1="273.1" x2="832" y2="273.1"/>  <text class="tick" x="52" y="277.1" text-anchor="end">+70%</text>  <line class="grid" x1="62" y1="195.5" x2="832" y2="195.5"/>  <text class="tick" x="52" y="199.5" text-anchor="end">+105%</text>  <line class="grid" x1="62" y1="117.9" x2="832" y2="117.9"/>  <text class="tick" x="52" y="121.9" text-anchor="end">+140%</text>  <rect class="backtest" x="62" y="64" width="756.4" height="398"/>  <text class="phase" x="72" y="84">backtest — in-sample, not evidence</text>  <line class="divider" x1="818.4" y1="64" x2="818.4" y2="462"/>  <text class="phase live" x="828.4" y="84">live — frozen spec, forward only</text>  <path d="M62.0,424.5 L64.7,427.7 L67.4,427.0 L70.2,409.8 L72.9,396.9 L75.6,404.3 L78.3,404.5 L81.0,404.2 L83.8,399.8 L86.5,386.8 L89.2,390.7 L91.9,385.0 L94.7,388.9 L97.4,379.2 L100.1,376.1 L102.8,374.5 L105.5,381.6 L108.3,384.6 L111.0,377.5 L113.7,387.8 L116.4,377.0 L119.1,356.2 L121.9,357.8 L124.6,365.0 L127.3,346.1 L130.0,345.6 L132.7,342.1 L135.5,336.5 L138.2,327.1 L140.9,332.1 L143.6,335.9 L146.3,337.6 L149.1,340.1 L151.8,333.8 L154.5,332.6 L157.2,325.8 L160.0,325.6 L162.7,325.7 L165.4,321.0 L168.1,322.7 L170.8,325.2 L173.6,329.5 L176.3,329.6 L179.0,323.6 L181.7,328.6 L184.4,324.4 L187.2,328.8 L189.9,331.4 L192.6,333.1 L195.3,330.1 L198.0,337.2 L200.8,330.8 L203.5,303.5 L206.2,311.0 L208.9,309.7 L211.6,293.1 L214.4,301.7 L217.1,273.3 L219.8,280.2 L222.5,290.4 L225.3,285.8 L228.0,277.5 L230.7,288.4 L233.4,264.2 L236.1,271.8 L238.9,293.6 L241.6,308.8 L244.3,306.1 L247.0,316.1 L249.7,313.5 L252.5,309.4 L255.2,316.7 L257.9,314.7 L260.6,311.8 L263.3,314.7 L266.1,312.7 L268.8,316.3 L271.5,310.6 L274.2,311.4 L276.9,309.4 L279.7,307.8 L282.4,309.0 L285.1,304.4 L287.8,297.7 L290.6,296.6 L293.3,297.7 L296.0,291.6 L298.7,292.0 L301.4,288.4 L304.2,305.1 L306.9,306.3 L309.6,302.1 L312.3,299.3 L315.0,304.8 L317.8,304.6 L320.5,303.3 L323.2,303.6 L325.9,303.6 L328.6,301.3 L331.4,298.9 L334.1,298.9 L336.8,293.2 L339.5,288.9 L342.2,294.7 L345.0,300.5 L347.7,306.5 L350.4,308.7 L353.1,240.5 L355.9,242.3 L358.6,246.4 L361.3,246.8 L364.0,245.3 L366.7,240.0 L369.5,250.0 L372.2,250.8 L374.9,272.4 L377.6,265.3 L380.3,262.3 L383.1,237.8 L385.8,240.2 L388.5,249.1 L391.2,245.4 L393.9,243.1 L396.7,252.4 L399.4,246.1 L402.1,240.2 L404.8,244.0 L407.5,232.3 L410.3,208.8 L413.0,197.7 L415.7,196.7 L418.4,194.9 L421.2,195.9 L423.9,196.3 L426.6,190.1 L429.3,183.8 L432.0,180.9 L434.8,178.9 L437.5,177.6 L440.2,179.0 L442.9,160.9 L445.6,168.3 L448.4,174.6 L451.1,154.5 L453.8,135.0 L456.5,91.4 L459.2,123.4 L462.0,143.7 L464.7,143.2 L467.4,137.8 L470.1,167.9 L472.8,176.4 L475.6,186.5 L478.3,197.4 L481.0,181.0 L483.7,169.7 L486.5,176.5 L489.2,178.4 L491.9,179.1 L494.6,167.4 L497.3,164.9 L500.1,175.3 L502.8,179.4 L505.5,181.8 L508.2,186.0 L510.9,175.1 L513.7,178.6 L516.4,184.2 L519.1,163.8 L521.8,160.6 L524.5,180.3 L527.3,187.7 L530.0,182.4 L532.7,175.5 L535.4,174.4 L538.1,165.1 L540.9,172.8 L543.6,176.0 L546.3,176.5 L549.0,177.9 L551.8,185.2 L554.5,187.2 L557.2,193.6 L559.9,212.6 L562.6,216.2 L565.4,205.7 L568.1,202.1 L570.8,207.9 L573.5,203.4 L576.2,193.5 L579.0,195.1 L581.7,192.5 L584.4,204.9 L587.1,217.9 L589.8,210.5 L592.6,202.7 L595.3,213.8 L598.0,209.3 L600.7,206.5 L603.4,204.2 L606.2,206.2 L608.9,205.2 L611.6,205.0 L614.3,204.2 L617.1,209.0 L619.8,213.5 L622.5,216.9 L625.2,212.4 L627.9,205.6 L630.7,211.3 L633.4,201.0 L636.1,195.3 L638.8,191.9 L641.5,197.6 L644.3,194.4 L647.0,192.8 L649.7,203.0 L652.4,204.6 L655.1,209.9 L657.9,209.9 L660.6,215.7 L663.3,216.9 L666.0,221.0 L668.7,237.1 L671.5,236.6 L674.2,243.4 L676.9,253.5 L679.6,264.6 L682.4,254.3 L685.1,265.0 L687.8,246.3 L690.5,261.0 L693.2,267.0 L696.0,273.9 L698.7,272.6 L701.4,274.3 L704.1,280.3 L706.8,283.3 L709.6,284.4 L712.3,280.2 L715.0,285.6 L717.7,292.0 L720.4,300.5 L723.2,303.7 L725.9,288.0 L728.6,280.4 L731.3,297.1 L734.0,302.5 L736.8,307.2 L739.5,307.6 L742.2,314.5 L744.9,301.2 L747.7,299.0 L750.4,296.0 L753.1,305.8 L755.8,316.1 L758.5,325.1 L761.3,323.5 L764.0,325.8 L766.7,336.0 L769.4,335.5 L772.1,334.6 L774.9,328.3 L777.6,342.7 L780.3,357.1 L783.0,358.3 L785.7,364.4 L788.5,352.7 L791.2,358.2 L793.9,352.1 L796.6,346.3 L799.3,343.9 L802.1,347.9 L804.8,337.2 L807.5,331.7 L810.2,325.6 L813.0,321.7 L815.7,327.6 L818.4,323.4" fill="none" stroke="var(--accent, #7c3aed)" stroke-width="2.6" stroke-dasharray="4 4" opacity="0.5"/>  <path d="M818.4,323.4 L821.1,321.5 L823.8,315.5 L826.6,322.2 L829.3,313.5 L832.0,308.0" fill="none" stroke="var(--accent, #7c3aed)" stroke-width="2.6"/>  <path d="M62.0,428.7 L64.7,432.2 L67.4,434.6 L70.2,429.8 L72.9,425.3 L75.6,423.5 L78.3,423.4 L81.0,422.2 L83.8,419.5 L86.5,419.1 L89.2,420.1 L91.9,418.6 L94.7,420.6 L97.4,418.9 L100.1,416.0 L102.8,416.7 L105.5,415.8 L108.3,414.8 L111.0,414.1 L113.7,415.5 L116.4,414.2 L119.1,411.6 L121.9,410.9 L124.6,408.0 L127.3,407.3 L130.0,409.1 L132.7,405.7 L135.5,405.3 L138.2,404.3 L140.9,404.0 L143.6,405.4 L146.3,407.3 L149.1,407.4 L151.8,402.9 L154.5,401.2 L157.2,399.0 L160.0,399.5 L162.7,398.7 L165.4,395.2 L168.1,395.0 L170.8,393.2 L173.6,398.1 L176.3,391.9 L179.0,389.2 L181.7,388.8 L184.4,385.6 L187.2,386.8 L189.9,383.5 L192.6,382.4 L195.3,381.1 L198.0,387.8 L200.8,385.6 L203.5,385.7 L206.2,383.7 L208.9,387.7 L211.6,392.9 L214.4,395.0 L217.1,389.0 L219.8,386.4 L222.5,388.7 L225.3,388.4 L228.0,383.7 L230.7,383.5 L233.4,383.7 L236.1,381.1 L238.9,380.1 L241.6,383.6 L244.3,384.6 L247.0,384.5 L249.7,388.6 L252.5,383.6 L255.2,385.5 L257.9,386.8 L260.6,383.9 L263.3,382.0 L266.1,381.8 L268.8,391.3 L271.5,381.2 L274.2,385.5 L276.9,382.4 L279.7,384.9 L282.4,388.4 L285.1,387.0 L287.8,384.2 L290.6,384.3 L293.3,382.7 L296.0,380.0 L298.7,379.9 L301.4,379.4 L304.2,378.7 L306.9,381.4 L309.6,378.6 L312.3,377.3 L315.0,381.7 L317.8,376.8 L320.5,376.4 L323.2,375.2 L325.9,373.6 L328.6,373.8 L331.4,374.9 L334.1,373.4 L336.8,372.6 L339.5,372.7 L342.2,375.6 L345.0,377.5 L347.7,383.4 L350.4,389.0 L353.1,385.4 L355.9,383.1 L358.6,383.9 L361.3,383.1 L364.0,379.1 L366.7,378.4 L369.5,379.3 L372.2,381.6 L374.9,383.4 L377.6,378.7 L380.3,377.5 L383.1,379.0 L385.8,378.0 L388.5,382.9 L391.2,383.0 L393.9,382.8 L396.7,387.0 L399.4,385.9 L402.1,383.4 L404.8,379.4 L407.5,378.4 L410.3,379.9 L413.0,376.1 L415.7,373.5 L418.4,373.5 L421.2,375.0 L423.9,374.0 L426.6,373.0 L429.3,369.1 L432.0,365.7 L434.8,365.6 L437.5,361.8 L440.2,356.2 L442.9,350.7 L445.6,355.2 L448.4,354.9 L451.1,353.3 L453.8,355.2 L456.5,351.3 L459.2,354.3 L462.0,350.0 L464.7,347.3 L467.4,342.8 L470.1,348.1 L472.8,347.4 L475.6,349.5 L478.3,352.5 L481.0,353.9 L483.7,356.4 L486.5,352.6 L489.2,352.6 L491.9,355.3 L494.6,349.3 L497.3,347.1 L500.1,347.5 L502.8,347.4 L505.5,348.4 L508.2,346.8 L510.9,345.5 L513.7,342.4 L516.4,343.0 L519.1,343.0 L521.8,344.0 L524.5,358.2 L527.3,351.8 L530.0,353.9 L532.7,351.3 L535.4,348.2 L538.1,344.2 L540.9,344.9 L543.6,347.9 L546.3,349.9 L549.0,348.9 L551.8,354.5 L554.5,355.0 L557.2,358.2 L559.9,370.7 L562.6,375.2 L565.4,369.7 L568.1,365.7 L570.8,372.9 L573.5,368.5 L576.2,364.9 L579.0,364.3 L581.7,364.8 L584.4,368.1 L587.1,374.0 L589.8,365.8 L592.6,361.6 L595.3,360.9 L598.0,361.4 L600.7,357.8 L603.4,355.6 L606.2,357.5 L608.9,354.1 L611.6,353.1 L614.3,351.4 L617.1,352.6 L619.8,350.0 L622.5,354.6 L625.2,355.2 L627.9,353.4 L630.7,356.5 L633.4,351.3 L636.1,348.0 L638.8,344.4 L641.5,342.2 L644.3,337.1 L647.0,335.4 L649.7,339.3 L652.4,334.6 L655.1,340.9 L657.9,343.7 L660.6,342.6 L663.3,340.5 L666.0,340.3 L668.7,348.3 L671.5,343.4 L674.2,345.5 L676.9,348.8 L679.6,354.7 L682.4,351.5 L685.1,359.5 L687.8,356.2 L690.5,359.4 L693.2,361.9 L696.0,362.8 L698.7,368.9 L701.4,367.6 L704.1,368.3 L706.8,371.2 L709.6,369.1 L712.3,367.2 L715.0,362.9 L717.7,362.1 L720.4,362.9 L723.2,362.4 L725.9,361.2 L728.6,361.9 L731.3,364.4 L734.0,368.4 L736.8,374.7 L739.5,374.8 L742.2,370.2 L744.9,367.1 L747.7,366.5 L750.4,364.0 L753.1,368.8 L755.8,375.1 L758.5,379.8 L761.3,378.1 L764.0,377.1 L766.7,387.1 L769.4,383.2 L772.1,384.5 L774.9,385.0 L777.6,395.5 L780.3,402.7 L783.0,400.7 L785.7,401.6 L788.5,399.2 L791.2,403.9 L793.9,397.7 L796.6,397.8 L799.3,395.9 L802.1,396.6 L804.8,393.3 L807.5,388.7 L810.2,385.3 L813.0,381.2 L815.7,378.7 L818.4,376.7" fill="none" stroke="var(--muted, #8b949e)" stroke-width="1.6" stroke-dasharray="4 4" opacity="0.5"/>  <path d="M818.4,376.7 L821.1,376.7 L823.8,372.4 L826.6,375.8 L829.3,375.3 L832.0,370.7" fill="none" stroke="var(--muted, #8b949e)" stroke-width="1.6"/>  <path d="M62.0,428.3 L64.7,430.1 L67.4,430.6 L70.2,428.8 L72.9,426.2 L75.6,423.6 L78.3,423.8 L81.0,425.5 L83.8,424.6 L86.5,424.1 L89.2,423.8 L91.9,422.8 L94.7,422.2 L97.4,422.9 L100.1,421.0 L102.8,421.3 L105.5,420.2 L108.3,419.7 L111.0,419.5 L113.7,419.8 L116.4,420.6 L119.1,418.6 L121.9,416.9 L124.6,415.9 L127.3,413.5 L130.0,414.2 L132.7,412.6 L135.5,413.6 L138.2,413.3 L140.9,412.4 L143.6,412.8 L146.3,416.9 L149.1,418.7 L151.8,416.3 L154.5,415.1 L157.2,414.0 L160.0,414.6 L162.7,414.6 L165.4,413.8 L168.1,412.3 L170.8,410.6 L173.6,411.6 L176.3,408.4 L179.0,407.0 L181.7,409.0 L184.4,404.6 L187.2,404.4 L189.9,397.1 L192.6,394.9 L195.3,394.6 L198.0,399.2 L200.8,394.8 L203.5,391.3 L206.2,391.0 L208.9,392.2 L211.6,394.5 L214.4,400.0 L217.1,394.1 L219.8,395.2 L222.5,395.8 L225.3,395.8 L228.0,389.7 L230.7,390.3 L233.4,390.0 L236.1,391.3 L238.9,389.6 L241.6,392.3 L244.3,391.6 L247.0,390.2 L249.7,392.5 L252.5,388.6 L255.2,387.9 L257.9,389.1 L260.6,384.8 L263.3,383.0 L266.1,382.0 L268.8,392.8 L271.5,384.6 L274.2,389.7 L276.9,387.2 L279.7,385.9 L282.4,388.9 L285.1,389.1 L287.8,387.9 L290.6,387.8 L293.3,385.2 L296.0,380.9 L298.7,380.9 L301.4,380.8 L304.2,378.8 L306.9,380.7 L309.6,384.4 L312.3,383.7 L315.0,388.7 L317.8,384.1 L320.5,382.3 L323.2,381.5 L325.9,380.5 L328.6,384.0 L331.4,384.0 L334.1,382.9 L336.8,385.6 L339.5,387.4 L342.2,388.4 L345.0,385.4 L347.7,391.5 L350.4,393.8 L353.1,393.7 L355.9,392.8 L358.6,391.1 L361.3,391.6 L364.0,390.0 L366.7,388.1 L369.5,389.1 L372.2,390.3 L374.9,389.5 L377.6,386.9 L380.3,385.9 L383.1,387.3 L385.8,386.7 L388.5,388.9 L391.2,389.4 L393.9,389.8 L396.7,392.3 L399.4,389.2 L402.1,388.8 L404.8,387.2 L407.5,385.6 L410.3,385.2 L413.0,384.9 L415.7,384.3 L418.4,383.2 L421.2,385.5 L423.9,383.3 L426.6,383.0 L429.3,379.7 L432.0,375.3 L434.8,377.3 L437.5,379.3 L440.2,376.8 L442.9,375.2 L445.6,376.9 L448.4,379.6 L451.1,376.3 L453.8,379.7 L456.5,378.7 L459.2,380.0 L462.0,378.4 L464.7,379.1 L467.4,379.9 L470.1,380.5 L472.8,379.4 L475.6,378.9 L478.3,379.5 L481.0,382.3 L483.7,383.8 L486.5,383.8 L489.2,382.8 L491.9,385.2 L494.6,381.2 L497.3,379.8 L500.1,379.9 L502.8,379.7 L505.5,381.2 L508.2,379.3 L510.9,380.0 L513.7,378.4 L516.4,380.9 L519.1,381.9 L521.8,378.7 L524.5,386.0 L527.3,383.6 L530.0,385.3 L532.7,386.5 L535.4,383.7 L538.1,381.9 L540.9,380.8 L543.6,382.6 L546.3,382.6 L549.0,381.6 L551.8,383.7 L554.5,385.9 L557.2,386.4 L559.9,392.3 L562.6,394.6 L565.4,391.9 L568.1,390.8 L570.8,396.2 L573.5,394.5 L576.2,392.7 L579.0,391.3 L581.7,391.4 L584.4,392.7 L587.1,395.4 L589.8,391.3 L592.6,388.7 L595.3,386.8 L598.0,385.7 L600.7,382.2 L603.4,379.3 L606.2,381.1 L608.9,379.2 L611.6,379.3 L614.3,377.9 L617.1,377.9 L619.8,374.2 L622.5,376.7 L625.2,376.4 L627.9,377.5 L630.7,378.7 L633.4,373.9 L636.1,371.8 L638.8,369.6 L641.5,371.0 L644.3,369.2 L647.0,365.6 L649.7,368.3 L652.4,362.1 L655.1,368.7 L657.9,373.0 L660.6,374.0 L663.3,373.4 L666.0,370.2 L668.7,374.0 L671.5,370.9 L674.2,369.4 L676.9,367.0 L679.6,370.0 L682.4,367.2 L685.1,369.5 L687.8,371.6 L690.5,368.1 L693.2,369.5 L696.0,370.1 L698.7,380.6 L701.4,378.3 L704.1,377.8 L706.8,379.1 L709.6,376.0 L712.3,373.4 L715.0,369.7 L717.7,371.7 L720.4,368.4 L723.2,366.5 L725.9,360.9 L728.6,369.3 L731.3,366.4 L734.0,364.7 L736.8,371.3 L739.5,368.5 L742.2,365.2 L744.9,371.4 L747.7,374.5 L750.4,371.2 L753.1,374.3 L755.8,374.8 L758.5,376.6 L761.3,370.1 L764.0,378.2 L766.7,381.3 L769.4,375.2 L772.1,380.2 L774.9,383.0 L777.6,387.9 L780.3,384.8 L783.0,380.2 L785.7,378.8 L788.5,381.7 L791.2,383.3 L793.9,385.2 L796.6,387.6 L799.3,388.5 L802.1,385.2 L804.8,388.7 L807.5,388.4 L810.2,389.4 L813.0,385.3 L815.7,383.3 L818.4,383.9" fill="none" stroke="var(--line-a, #0969da)" stroke-width="1.6" stroke-dasharray="4 4" opacity="0.5"/>  <path d="M818.4,383.9 L821.1,385.5 L823.8,382.3 L826.6,384.8 L829.3,384.8 L832.0,381.3" fill="none" stroke="var(--line-a, #0969da)" stroke-width="1.6"/>  <path d="M62.0,428.8 L64.7,430.2 L67.4,430.0 L70.2,428.2 L72.9,425.8 L75.6,423.7 L78.3,423.8 L81.0,426.9 L83.8,425.8 L86.5,425.3 L89.2,424.9 L91.9,425.2 L94.7,424.1 L97.4,424.4 L100.1,423.2 L102.8,423.8 L105.5,422.5 L108.3,422.0 L111.0,422.2 L113.7,423.1 L116.4,424.0 L119.1,423.2 L121.9,421.2 L124.6,421.0 L127.3,418.9 L130.0,419.0 L132.7,418.2 L135.5,418.8 L138.2,418.6 L140.9,418.0 L143.6,418.2 L146.3,421.1 L149.1,423.0 L151.8,421.0 L154.5,419.7 L157.2,419.0 L160.0,419.1 L162.7,419.5 L165.4,419.5 L168.1,418.0 L170.8,417.5 L173.6,417.0 L176.3,415.2 L179.0,415.2 L181.7,418.1 L184.4,414.3 L187.2,413.1 L189.9,406.4 L192.6,404.3 L195.3,404.4 L198.0,409.0 L200.8,406.0 L203.5,403.4 L206.2,403.6 L208.9,402.7 L211.6,406.4 L214.4,409.8 L217.1,407.1 L219.8,408.2 L222.5,408.2 L225.3,408.4 L228.0,403.4 L230.7,404.2 L233.4,404.8 L236.1,407.0 L238.9,405.6 L241.6,409.3 L244.3,409.6 L247.0,409.0 L249.7,409.9 L252.5,406.8 L255.2,407.1 L257.9,407.2 L260.6,403.5 L263.3,401.9 L266.1,402.2 L268.8,409.1 L271.5,403.4 L274.2,405.4 L276.9,402.8 L279.7,400.8 L282.4,403.6 L285.1,403.7 L287.8,403.3 L290.6,402.1 L293.3,399.6 L296.0,397.0 L298.7,397.3 L301.4,398.2 L304.2,397.8 L306.9,398.5 L309.6,401.5 L312.3,401.1 L315.0,403.5 L317.8,401.0 L320.5,399.3 L323.2,398.7 L325.9,397.3 L328.6,399.4 L331.4,398.6 L334.1,397.5 L336.8,399.6 L339.5,401.8 L342.2,401.9 L345.0,399.8 L347.7,403.1 L350.4,405.0 L353.1,405.3 L355.9,404.8 L358.6,404.3 L361.3,404.8 L364.0,404.3 L366.7,402.9 L369.5,404.2 L372.2,404.9 L374.9,404.7 L377.6,401.7 L380.3,401.3 L383.1,402.8 L385.8,402.6 L388.5,403.8 L391.2,403.9 L393.9,403.9 L396.7,406.0 L399.4,403.6 L402.1,402.8 L404.8,401.4 L407.5,400.3 L410.3,399.9 L413.0,400.6 L415.7,399.6 L418.4,398.2 L421.2,400.4 L423.9,399.1 L426.6,398.0 L429.3,393.5 L432.0,388.9 L434.8,390.9 L437.5,392.3 L440.2,390.2 L442.9,389.8 L445.6,391.0 L448.4,393.7 L451.1,392.5 L453.8,395.9 L456.5,395.8 L459.2,396.2 L462.0,395.7 L464.7,397.7 L467.4,398.8 L470.1,397.8 L472.8,396.8 L475.6,396.1 L478.3,394.9 L481.0,399.2 L483.7,399.5 L486.5,399.5 L489.2,398.2 L491.9,400.0 L494.6,396.8 L497.3,395.2 L500.1,395.5 L502.8,394.7 L505.5,397.1 L508.2,396.0 L510.9,398.5 L513.7,397.4 L516.4,400.1 L519.1,399.7 L521.8,398.5 L524.5,403.5 L527.3,402.8 L530.0,404.5 L532.7,405.3 L535.4,404.4 L538.1,403.6 L540.9,404.1 L543.6,405.4 L546.3,406.2 L549.0,405.8 L551.8,405.1 L554.5,407.8 L557.2,409.3 L559.9,414.9 L562.6,417.7 L565.4,415.0 L568.1,414.3 L570.8,418.5 L573.5,417.6 L576.2,415.1 L579.0,413.5 L581.7,412.7 L584.4,414.1 L587.1,416.3 L589.8,412.8 L592.6,411.5 L595.3,410.5 L598.0,411.5 L600.7,409.0 L603.4,407.3 L606.2,407.4 L608.9,408.8 L611.6,409.6 L614.3,407.9 L617.1,408.2 L619.8,407.4 L622.5,408.4 L625.2,406.9 L627.9,407.4 L630.7,407.4 L633.4,404.6 L636.1,401.4 L638.8,399.4 L641.5,401.1 L644.3,400.5 L647.0,398.5 L649.7,399.9 L652.4,397.6 L655.1,402.9 L657.9,406.6 L660.6,408.1 L663.3,407.2 L666.0,404.5 L668.7,407.5 L671.5,407.9 L674.2,406.0 L676.9,404.8 L679.6,408.6 L682.4,408.9 L685.1,409.0 L687.8,410.7 L690.5,409.4 L693.2,410.3 L696.0,411.9 L698.7,417.2 L701.4,416.2 L704.1,416.3 L706.8,415.3 L709.6,413.4 L712.3,408.9 L715.0,407.7 L717.7,410.1 L720.4,408.3 L723.2,408.1 L725.9,402.4 L728.6,408.9 L731.3,406.9 L734.0,405.5 L736.8,409.6 L739.5,404.6 L742.2,404.2 L744.9,407.3 L747.7,409.1 L750.4,406.4 L753.1,407.8 L755.8,408.1 L758.5,408.4 L761.3,402.5 L764.0,407.9 L766.7,409.7 L769.4,405.9 L772.1,408.3 L774.9,411.6 L777.6,414.5 L780.3,406.2 L783.0,406.0 L785.7,402.0 L788.5,404.6 L791.2,404.2 L793.9,408.8 L796.6,406.5 L799.3,410.3 L802.1,406.8 L804.8,409.8 L807.5,411.3 L810.2,412.0 L813.0,409.4 L815.7,409.1 L818.4,409.6" fill="none" stroke="var(--line-b, #bf8700)" stroke-width="1.6" stroke-dasharray="4 4" opacity="0.5"/>  <path d="M818.4,409.6 L821.1,411.7 L823.8,410.5 L826.6,411.6 L829.3,413.1 L832.0,410.9" fill="none" stroke="var(--line-b, #bf8700)" stroke-width="1.6"/>  <path d="M62.0,424.0 L64.7,423.7 L67.4,420.5 L70.2,407.9 L72.9,399.8 L75.6,409.2 L78.3,409.5 L81.0,410.5 L83.8,409.0 L86.5,396.9 L89.2,399.5 L91.9,395.6 L94.7,397.1 L97.4,389.8 L100.1,390.0 L102.8,387.6 L105.5,395.4 L108.3,399.4 L111.0,393.4 L113.7,401.7 L116.4,392.7 L119.1,376.1 L121.9,378.3 L124.6,388.3 L127.3,371.7 L130.0,369.1 L132.7,369.8 L135.5,365.2 L138.2,357.8 L140.9,362.7 L143.6,364.5 L146.3,363.9 L149.1,366.1 L151.8,365.5 L154.5,366.4 L157.2,362.9 L160.0,362.1 L162.7,363.2 L165.4,362.9 L168.1,364.7 L170.8,368.9 L173.6,367.2 L176.3,374.2 L179.0,372.0 L181.7,376.6 L184.4,376.4 L187.2,378.9 L189.9,384.5 L192.6,387.0 L195.3,385.8 L198.0,385.1 L200.8,381.9 L203.5,358.8 L206.2,367.3 L208.9,362.1 L211.6,342.3 L214.4,347.1 L217.1,329.6 L219.8,338.7 L222.5,344.5 L225.3,340.9 L228.0,339.5 L230.7,348.8 L233.4,328.4 L236.1,337.9 L238.9,357.0 L241.6,365.7 L244.3,362.3 L247.0,370.9 L249.7,364.4 L252.5,366.4 L255.2,370.4 L257.9,367.4 L260.6,368.1 L263.3,372.5 L266.1,371.0 L268.8,364.1 L271.5,370.5 L274.2,366.6 L276.9,368.2 L279.7,364.3 L282.4,361.5 L285.1,359.1 L287.8,356.7 L290.6,355.7 L293.3,358.3 L296.0,356.2 L298.7,356.6 L301.4,354.2 L304.2,368.6 L306.9,366.9 L309.6,366.3 L312.3,365.4 L315.0,365.3 L317.8,370.3 L320.5,369.7 L323.2,371.1 L325.9,372.7 L328.6,370.7 L331.4,367.6 L334.1,369.3 L336.8,365.5 L339.5,361.9 L342.2,363.5 L345.0,366.2 L347.7,365.0 L350.4,360.8 L353.1,307.0 L355.9,311.5 L358.6,313.9 L361.3,315.2 L364.0,319.0 L366.7,315.4 L369.5,322.6 L372.2,320.5 L374.9,336.1 L377.6,335.7 L380.3,334.6 L383.1,312.9 L385.8,316.1 L388.5,317.4 L391.2,314.2 L393.9,312.6 L396.7,314.9 L399.4,311.0 L402.1,309.3 L404.8,317.6 L407.5,309.2 L410.3,288.2 L413.0,284.2 L415.7,286.9 L418.4,285.5 L421.2,284.2 L423.9,285.9 L426.6,282.2 L429.3,282.3 L432.0,284.5 L434.8,283.1 L437.5,287.0 L440.2,295.2 L442.9,288.1 L445.6,288.2 L448.4,293.3 L451.1,280.1 L453.8,263.1 L456.5,235.7 L459.2,255.1 L462.0,276.0 L464.7,279.1 L467.4,280.7 L470.1,296.0 L472.8,303.0 L475.6,308.0 L478.3,312.6 L481.0,298.8 L483.7,287.5 L486.5,297.2 L489.2,298.7 L491.9,296.0 L494.6,294.4 L497.3,295.3 L500.1,302.4 L502.8,305.4 L505.5,306.1 L508.2,310.9 L510.9,304.5 L513.7,310.5 L516.4,313.8 L519.1,299.2 L521.8,295.8 L524.5,293.6 L527.3,307.0 L530.0,300.7 L532.7,298.5 L535.4,301.4 L538.1,299.1 L540.9,304.0 L543.6,302.9 L546.3,300.9 L549.0,303.1 L551.8,302.0 L554.5,302.9 L557.2,304.0 L559.9,303.6 L562.6,300.8 L565.4,299.3 L568.1,301.5 L570.8,297.2 L573.5,299.3 L576.2,296.0 L579.0,297.9 L581.7,295.2 L584.4,300.8 L587.1,303.7 L589.8,308.1 L592.6,307.0 L595.3,316.4 L598.0,312.3 L600.7,314.4 L603.4,315.2 L606.2,314.6 L608.9,317.7 L611.6,318.6 L614.3,319.9 L617.1,322.2 L619.8,328.5 L622.5,326.1 L625.2,321.9 L627.9,318.9 L630.7,319.6 L633.4,317.8 L636.1,317.2 L638.8,318.6 L641.5,325.1 L644.3,328.3 L647.0,328.9 L649.7,332.1 L652.4,338.1 L655.1,335.6 L657.9,332.7 L660.6,337.9 L663.3,340.9 L666.0,344.1 L668.7,347.6 L671.5,352.2 L674.2,355.1 L676.9,359.2 L679.6,361.6 L682.4,357.0 L685.1,357.2 L687.8,346.3 L690.5,354.0 L693.2,356.0 L696.0,360.3 L698.7,353.2 L701.4,356.0 L704.1,359.9 L706.8,359.3 L709.6,362.3 L712.3,360.9 L715.0,369.6 L717.7,375.3 L720.4,381.1 L723.2,384.0 L725.9,373.0 L728.6,366.5 L731.3,376.9 L734.0,377.2 L736.8,374.9 L739.5,375.1 L742.2,385.2 L744.9,377.6 L747.7,376.5 L750.4,376.5 L753.1,379.5 L755.8,381.6 L758.5,384.3 L761.3,384.6 L764.0,387.5 L766.7,386.1 L769.4,389.5 L772.1,387.6 L774.9,381.8 L777.6,383.2 L780.3,388.1 L783.0,391.3 L785.7,395.8 L788.5,387.9 L791.2,387.8 L793.9,388.9 L796.6,383.8 L799.3,383.6 L802.1,386.4 L804.8,380.5 L807.5,380.6 L810.2,378.9 L813.0,379.9 L815.7,387.2 L818.4,385.7 L821.1,384.2 L823.8,383.5 L826.6,385.6 L829.3,379.1 L832.0,379.2" fill="none" stroke="var(--excess, #57606a)" stroke-width="1.4" stroke-dasharray="1 3"/>  <line x1="848" y1="66" x2="868" y2="66" stroke="var(--accent, #7c3aed)" stroke-width="2.6"/>  <text class="legend" x="874" y="70">One name, rotated daily</text>  <text class="legend value" x="874" y="86">+54.3%</text>  <line x1="848" y1="110" x2="868" y2="110" stroke="var(--muted, #8b949e)" stroke-width="2.6"/>  <text class="legend" x="874" y="114">Eligible universe, equal weight</text>  <text class="legend value" x="874" y="130">+26.0%</text>  <line x1="848" y1="154" x2="868" y2="154" stroke="var(--line-a, #0969da)" stroke-width="2.6"/>  <text class="legend" x="874" y="158">CSI300</text>  <text class="legend value" x="874" y="174">+21.2%</text>  <line x1="848" y1="198" x2="868" y2="198" stroke="var(--line-b, #bf8700)" stroke-width="2.6"/>  <text class="legend" x="874" y="202">SSE50 (onshore A50 proxy)</text>  <text class="legend value" x="874" y="218">+7.8%</text>  <line x1="848" y1="242" x2="868" y2="242" stroke="var(--excess, #57606a)" stroke-width="1.4" stroke-dasharray="1 3"/>  <text class="legend" x="874" y="246">excess over universe</text>  <text class="legend value" x="874" y="262">+22.1%</text>  <text class="tick" x="62.0" y="484" text-anchor="start">2025-06-19</text>  <text class="tick" x="832.0" y="484" text-anchor="end">2026-08-18</text>  <rect class="pick-box" x="848" y="402" width="144" height="72" rx="8"/>  <text class="pick-label" x="860" y="422">NEXT SESSION</text>  <text class="pick-symbol" x="860" y="446">SH_603727</text>  <text class="pick-meta" x="860" y="464">published 2026-08-21 · buy at open</text>
  <text class="footer" x="62" y="504">6 live sessions of a frozen one-name book · 278 backtested · live spec dea0e60855645c2e · backtest spec 224a02ea9bb7b17b</text>
  <text class="footer" x="848" y="504" text-anchor="start">Research only. No orders.</text>
  <text class="footer" x="62" y="486">redrawn 2026-08-21</text>
</svg>
